<?xml version="1.0" encoding="UTF-8" standalone="no"?>
<!DOCTYPE svg PUBLIC "-//W3C//DTD SVG 1.1//EN"
 "http://www.w3.org/Graphics/SVG/1.1/DTD/svg11.dtd">
<!-- Generated by graphviz version 2.40.1 (20161225.0304)
 -->
<!-- Title: state transitions Pages: 1 -->
<svg width="559pt" height="434pt"
 viewBox="0.00 0.00 558.56 434.00" xmlns="http://www.w3.org/2000/svg" xmlns:xlink="http://www.w3.org/1999/xlink">
<g id="graph0" class="graph" transform="scale(1 1) rotate(0) translate(4 430)">
<title>state transitions</title>
<polygon fill="#ffffff" stroke="transparent" points="-4,4 -4,-430 554.56,-430 554.56,4 -4,4"/>
<g id="clust1" class="cluster state regular">
<title>cluster_state</title>
<path fill="none" stroke="#000000" stroke-width="2" d="M20,-8C20,-8 485,-8 485,-8 491,-8 497,-14 497,-20 497,-20 497,-406 497,-406 497,-412 491,-418 485,-418 485,-418 20,-418 20,-418 14,-418 8,-412 8,-406 8,-406 8,-20 8,-20 8,-14 14,-8 20,-8"/>
<text text-anchor="start" x="239.4944" y="-399.2" font-family="Helvetica,sans-Serif" font-size="12.00" fill="#000000">state</text>
</g>
<!-- state -->
<!-- FETCH_INSTR -->
<g id="node2" class="node state regular">
<title>FETCH_INSTR</title>
<polygon fill="#ffffff" fill-opacity="0.003922" stroke="transparent" stroke-width="2" points="246,-380 142,-380 142,-344 246,-344 246,-380"/>
<text text-anchor="start" x="152.6726" y="-358.2" font-family="Helvetica,sans-Serif" font-size="12.00" fill="#000000">FETCH_INSTR</text>
<path fill="none" stroke="#000000" stroke-width="2" d="M154.3333,-345C154.3333,-345 233.6667,-345 233.6667,-345 239.3333,-345 245,-350.6667 245,-356.3333 245,-356.3333 245,-367.6667 245,-367.6667 245,-373.3333 239.3333,-379 233.6667,-379 233.6667,-379 154.3333,-379 154.3333,-379 148.6667,-379 143,-373.3333 143,-367.6667 143,-367.6667 143,-356.3333 143,-356.3333 143,-350.6667 148.6667,-345 154.3333,-345"/>
</g>
<!-- WAIT4REGS -->
<g id="node3" class="node state regular">
<title>WAIT4REGS</title>
<polygon fill="#ffffff" fill-opacity="0.003922" stroke="transparent" stroke-width="2" points="132,-298 40,-298 40,-262 132,-262 132,-298"/>
<text text-anchor="start" x="50.6654" y="-276.2" font-family="Helvetica,sans-Serif" font-size="12.00" fill="#000000">WAIT4REGS</text>
<path fill="none" stroke="#000000" stroke-width="2" d="M52.3333,-263C52.3333,-263 119.6667,-263 119.6667,-263 125.3333,-263 131,-268.6667 131,-274.3333 131,-274.3333 131,-285.6667 131,-285.6667 131,-291.3333 125.3333,-297 119.6667,-297 119.6667,-297 52.3333,-297 52.3333,-297 46.6667,-297 41,-291.3333 41,-285.6667 41,-285.6667 41,-274.3333 41,-274.3333 41,-268.6667 46.6667,-263 52.3333,-263"/>
</g>
<!-- FETCH_INSTR&#45;&gt;WAIT4REGS -->
<g id="edge1" class="edge transition">
<title>FETCH_INSTR&#45;&gt;WAIT4REGS</title>
<path fill="none" stroke="#000000" d="M141.9405,-352.5043C115.1597,-346.4489 86.4862,-337.7252 78.53,-327 74.429,-321.4717 73.7884,-314.5638 74.7902,-307.7598"/>
<polygon fill="#000000" stroke="#000000" points="78.1906,-308.5887 77.2215,-298.0383 71.3998,-306.8903 78.1906,-308.5887"/>
<text text-anchor="start" x="78" y="-318" font-family="Helvetica,sans-Serif" font-size="10.00" fill="#000000">EN_WAIT4REGS == 1 &#160;&#160;</text>
</g>
<!-- EXECUTE -->
<g id="node6" class="node state regular">
<title>EXECUTE</title>
<polygon fill="#ffffff" fill-opacity="0.003922" stroke="transparent" stroke-width="2" points="199,-216 121,-216 121,-180 199,-180 199,-216"/>
<text text-anchor="start" x="131.6662" y="-194.2" font-family="Helvetica,sans-Serif" font-size="12.00" fill="#000000">EXECUTE</text>
<path fill="none" stroke="#000000" stroke-width="2" d="M133.3333,-181C133.3333,-181 186.6667,-181 186.6667,-181 192.3333,-181 198,-186.6667 198,-192.3333 198,-192.3333 198,-203.6667 198,-203.6667 198,-209.3333 192.3333,-215 186.6667,-215 186.6667,-215 133.3333,-215 133.3333,-215 127.6667,-215 122,-209.3333 122,-203.6667 122,-203.6667 122,-192.3333 122,-192.3333 122,-186.6667 127.6667,-181 133.3333,-181"/>
</g>
<!-- FETCH_INSTR&#45;&gt;EXECUTE -->
<g id="edge2" class="edge transition">
<title>FETCH_INSTR&#45;&gt;EXECUTE</title>
<path fill="none" stroke="#000000" d="M246.1719,-356.2583C285.2511,-350.4544 332,-339.6201 332,-321 332,-321 332,-321 332,-239 332,-213.5835 260.0342,-203.8933 209.2037,-200.219"/>
<polygon fill="#000000" stroke="#000000" points="209.2398,-196.7137 199.0295,-199.542 208.775,-203.6983 209.2398,-196.7137"/>
<text text-anchor="start" x="332" y="-277" font-family="Helvetica,sans-Serif" font-size="10.00" fill="#000000">not (EN_WAIT4REGS == 1) &#160;&#160;</text>
</g>
<!-- WAIT4REGS&#45;&gt;EXECUTE -->
<g id="edge3" class="edge transition">
<title>WAIT4REGS&#45;&gt;EXECUTE</title>
<path fill="none" stroke="#000000" d="M102.423,-261.8015C112.4825,-250.6545 125.5176,-236.2103 136.6403,-223.8851"/>
<polygon fill="#000000" stroke="#000000" points="139.5216,-225.9164 143.6229,-216.1476 134.3248,-221.2267 139.5216,-225.9164"/>
<text text-anchor="middle" x="128.3895" y="-236" font-family="Helvetica,sans-Serif" font-size="10.00" fill="#000000"> </text>
</g>
<!-- LOAD_DATA -->
<g id="node4" class="node state regular">
<title>LOAD_DATA</title>
<polygon fill="#ffffff" fill-opacity="0.003922" stroke="transparent" stroke-width="2" points="117.5,-134 24.5,-134 24.5,-98 117.5,-98 117.5,-134"/>
<text text-anchor="start" x="35.8294" y="-112.2" font-family="Helvetica,sans-Serif" font-size="12.00" fill="#000000">LOAD_DATA</text>
<path fill="none" stroke="#000000" stroke-width="2" d="M36.8333,-99C36.8333,-99 105.1667,-99 105.1667,-99 110.8333,-99 116.5,-104.6667 116.5,-110.3333 116.5,-110.3333 116.5,-121.6667 116.5,-121.6667 116.5,-127.3333 110.8333,-133 105.1667,-133 105.1667,-133 36.8333,-133 36.8333,-133 31.1667,-133 25.5,-127.3333 25.5,-121.6667 25.5,-121.6667 25.5,-110.3333 25.5,-110.3333 25.5,-104.6667 31.1667,-99 36.8333,-99"/>
</g>
<!-- LOAD_DATA&#45;&gt;FETCH_INSTR -->
<g id="edge4" class="edge transition">
<title>LOAD_DATA&#45;&gt;FETCH_INSTR</title>
<path fill="none" stroke="#000000" d="M59.1324,-134.0386C38.478,-167.8946 .706,-242.5392 29,-298 38.9788,-317.5601 50.8685,-314.6136 69,-327 75.1079,-331.1725 76.1889,-333.1146 83,-336 98.3186,-342.4894 115.5443,-347.5204 131.7733,-351.351"/>
<polygon fill="#000000" stroke="#000000" points="131.1998,-354.8092 141.7234,-353.5833 132.7322,-347.979 131.1998,-354.8092"/>
<text text-anchor="start" x="21" y="-236" font-family="Helvetica,sans-Serif" font-size="10.00" fill="#000000">dmem_rdy &#160;&#160;</text>
</g>
<!-- WAIT_DATA -->
<g id="node5" class="node state regular">
<title>WAIT_DATA</title>
<polygon fill="#ffffff" fill-opacity="0.003922" stroke="transparent" stroke-width="2" points="255,-52 165,-52 165,-16 255,-16 255,-52"/>
<text text-anchor="start" x="175.6674" y="-30.2" font-family="Helvetica,sans-Serif" font-size="12.00" fill="#000000">WAIT_DATA</text>
<path fill="none" stroke="#000000" stroke-width="2" d="M177.3333,-17C177.3333,-17 242.6667,-17 242.6667,-17 248.3333,-17 254,-22.6667 254,-28.3333 254,-28.3333 254,-39.6667 254,-39.6667 254,-45.3333 248.3333,-51 242.6667,-51 242.6667,-51 177.3333,-51 177.3333,-51 171.6667,-51 166,-45.3333 166,-39.6667 166,-39.6667 166,-28.3333 166,-28.3333 166,-22.6667 171.6667,-17 177.3333,-17"/>
</g>
<!-- LOAD_DATA&#45;&gt;WAIT_DATA -->
<g id="edge5" class="edge transition">
<title>LOAD_DATA&#45;&gt;WAIT_DATA</title>
<path fill="none" stroke="#000000" d="M101.8486,-97.8015C122.0939,-85.8583 148.7553,-70.13 170.5403,-57.2784"/>
<polygon fill="#000000" stroke="#000000" points="172.403,-60.2432 179.2376,-52.1476 168.8463,-54.2141 172.403,-60.2432"/>
<text text-anchor="start" x="149" y="-72" font-family="Helvetica,sans-Serif" font-size="10.00" fill="#000000">not (dmem_rdy) &#160;&#160;</text>
</g>
<!-- WAIT_DATA&#45;&gt;FETCH_INSTR -->
<g id="edge6" class="edge transition">
<title>WAIT_DATA&#45;&gt;FETCH_INSTR</title>
<path fill="none" stroke="#000000" d="M255.2842,-36.1156C334.0588,-40.407 488,-51.7657 488,-75 488,-142.5 488,-142.5 488,-142.5 488,-212.0726 515.5159,-245.3821 470,-298 442.4928,-329.7993 328.6374,-347.6689 256.0293,-356.032"/>
<polygon fill="#000000" stroke="#000000" points="255.6184,-352.5561 246.0711,-357.1495 256.399,-359.5124 255.6184,-352.5561"/>
<text text-anchor="start" x="495" y="-195" font-family="Helvetica,sans-Serif" font-size="10.00" fill="#000000">dmem_rdy &#160;&#160;</text>
</g>
<!-- WAIT_DATA&#45;&gt;WAIT_DATA -->
<g id="edge7" class="edge transition">
<title>WAIT_DATA&#45;&gt;WAIT_DATA</title>
<path fill="none" stroke="#000000" d="M255.0914,-38.8452C267.51,-38.6112 277,-36.9961 277,-34 277,-31.8934 272.3083,-30.4695 265.2057,-29.7284"/>
<polygon fill="#000000" stroke="#000000" points="265.2735,-26.2267 255.0914,-29.1548 264.8771,-33.2155 265.2735,-26.2267"/>
<text text-anchor="start" x="277" y="-31" font-family="Helvetica,sans-Serif" font-size="10.00" fill="#000000">not (dmem_rdy) &#160;&#160;</text>
</g>
<!-- EXECUTE&#45;&gt;FETCH_INSTR -->
<g id="edge9" class="edge transition">
<title>EXECUTE&#45;&gt;FETCH_INSTR</title>
<path fill="none" stroke="#000000" d="M165.2997,-216.0743C171.8084,-238.9214 182.7516,-279.5518 189,-315 190.0585,-321.0053 190.9239,-327.4846 191.6189,-333.6566"/>
<polygon fill="#000000" stroke="#000000" points="188.1379,-334.0212 192.632,-343.6157 195.1019,-333.3128 188.1379,-334.0212"/>
<text text-anchor="start" x="185" y="-277" font-family="Helvetica,sans-Serif" font-size="10.00" fill="#000000">!instr_decode.SYSTEM &#160;&#160;</text>
</g>
<!-- EXECUTE&#45;&gt;LOAD_DATA -->
<g id="edge8" class="edge transition">
<title>EXECUTE&#45;&gt;LOAD_DATA</title>
<path fill="none" stroke="#000000" d="M120.6377,-185.3141C108.9508,-179.9635 96.9541,-172.6747 88.223,-163 83.3723,-157.625 79.8547,-150.7707 77.3163,-143.9692"/>
<polygon fill="#000000" stroke="#000000" points="80.5906,-142.7134 74.2566,-134.2204 73.9118,-144.8096 80.5906,-142.7134"/>
<text text-anchor="start" x="88" y="-154" font-family="Helvetica,sans-Serif" font-size="10.00" fill="#000000">instr_decode.LOAD &amp; ((!dmem_rdy &amp; EN_WAIT4REGS == 1) | EN_WAIT4REGS == 0) &#160;&#160;</text>
</g>
</g>
</svg>
